<svg width="50" height="50" viewBox="0 0 50 50" fill="none" xmlns="http://www.w3.org/2000/svg">
<path d="M42.6596 21.0726H41.25V21H25.5V28H35.3901C33.9473 32.0749 30.0701 35 25.5 35C19.7014 35 15 30.2986 15 24.5C15 18.7014 19.7014 14 25.5 14C28.1766 14 30.6118 15.0097 32.4659 16.6591L37.4158 11.7092C34.2903 8.79637 30.1095 7 25.5 7C15.8356 7 8 14.8356 8 24.5C8 34.1644 15.8356 42 25.5 42C35.1644 42 43 34.1644 43 24.5C43 23.3266 42.8793 22.1813 42.6596 21.0726Z" fill="#FFC107"/>
<path d="M10.0178 16.3546L15.7674 20.5713C17.3232 16.7195 21.0909 14 25.5001 14C28.1767 14 30.6118 15.0097 32.4659 16.6591L37.4158 11.7092C34.2903 8.79637 30.1096 7 25.5001 7C18.7783 7 12.9491 10.7949 10.0178 16.3546Z" fill="#FF3D00"/>
<path d="M25.4998 42C30.02 42 34.1273 40.2701 37.2327 37.457L31.8164 32.8737C30.0007 34.2554 27.7814 35.0024 25.4998 35C20.948 35 17.0832 32.0976 15.6272 28.0472L9.92041 32.4441C12.8167 38.1115 18.6984 42 25.4998 42Z" fill="#4CAF50"/>
<path d="M42.6596 21.0726H41.25V21H25.5V28H35.3901C34.6999 29.9394 33.4567 31.634 31.814 32.8746L31.8166 32.8729L37.2329 37.4561C36.8496 37.8044 43 33.25 43 24.5C43 23.3266 42.8793 22.1813 42.6596 21.0726Z" fill="#1976D2"/>
</svg>
