<svg width="51" height="51" viewBox="0 0 51 51" fill="none" xmlns="http://www.w3.org/2000/svg">
<path d="M26.0693 7.5C35.7184 7.5 43.5693 14.1854 43.5693 22.4045C43.5693 25.6944 42.3553 28.656 39.8178 31.574C36.1471 36.0095 27.9375 41.4116 26.0693 42.2381C24.2537 43.0416 24.4637 41.7858 24.5468 41.2899L24.5534 41.2486L24.8028 39.6759C24.8618 39.2076 24.9231 38.4798 24.7459 38.016C24.549 37.5041 23.7746 37.2378 23.2059 37.1092C14.795 35.9452 8.56934 29.7718 8.56934 22.4045C8.56934 14.1854 16.4225 7.5 26.0693 7.5ZM19.555 25.1457H16.219V18.7908C16.219 18.6963 16.1834 18.6055 16.1198 18.5384C16.0563 18.4713 15.9701 18.4333 15.88 18.4327H14.6506C14.6058 18.4327 14.5614 18.442 14.52 18.46C14.4786 18.478 14.441 18.5043 14.4093 18.5376C14.3776 18.5709 14.3525 18.6103 14.3353 18.6538C14.3182 18.6972 14.3093 18.7438 14.3093 18.7908V26.7941C14.3093 26.8882 14.3465 26.9777 14.4056 27.0397V27.042L14.41 27.0466L14.4143 27.0512C14.4455 27.0833 14.4824 27.1086 14.523 27.1256C14.5635 27.1425 14.6069 27.1508 14.6506 27.1499H19.555C19.7431 27.1499 19.894 26.9892 19.894 26.7918V25.5061C19.8943 25.4591 19.8858 25.4125 19.8689 25.3689C19.852 25.3253 19.8271 25.2857 19.7956 25.2522C19.7641 25.2187 19.7267 25.1921 19.6854 25.1738C19.6441 25.1555 19.5998 25.146 19.555 25.1457ZM21.2853 18.4327C21.1948 18.4327 21.108 18.4704 21.044 18.5376C20.98 18.6048 20.944 18.6959 20.944 18.7908V26.7941C20.944 26.9915 21.0971 27.1499 21.2853 27.1499H22.5146C22.7028 27.1499 22.8537 26.9892 22.8537 26.7941V18.7908C22.8537 18.6963 22.8181 18.6055 22.7545 18.5384C22.691 18.4713 22.6048 18.4333 22.5146 18.4327H21.2853ZM29.7356 18.4327C29.6451 18.4327 29.5583 18.4704 29.4943 18.5376C29.4303 18.6048 29.3943 18.6959 29.3943 18.7908V23.5432L25.9009 18.5934L25.8725 18.559L25.8506 18.5337L25.844 18.5268L25.82 18.5062L25.8068 18.497L25.8003 18.4924L25.7893 18.4855L25.7718 18.474H25.7675L25.7609 18.4694L25.739 18.4602L25.7303 18.4557L25.7084 18.4488H25.704L25.6975 18.4465L25.6778 18.4419H25.6646L25.6581 18.4396H25.6493L25.645 18.4373H24.3893C24.2992 18.4373 24.2127 18.4747 24.1488 18.5414C24.0849 18.608 24.0487 18.6986 24.0481 18.7931V26.7964C24.0481 26.9938 24.2012 27.1522 24.3893 27.1522H25.6143C25.8046 27.1522 25.9578 26.9915 25.9578 26.7964V22.044L29.4578 27.003C29.4823 27.036 29.511 27.0654 29.5431 27.0902L29.5453 27.0925L29.5671 27.1063L29.5759 27.1109L29.5934 27.1201L29.6087 27.127L29.6196 27.1316L29.6415 27.1385H29.6481C29.6767 27.1461 29.706 27.1507 29.7356 27.1522H30.9606C31.1509 27.1522 31.304 26.9915 31.304 26.7964V18.7908C31.304 18.6959 31.2681 18.6048 31.2041 18.5376C31.1401 18.4704 31.0533 18.4327 30.9628 18.4327H29.7356ZM38.0809 20.0788V18.7931C38.0812 18.7461 38.0726 18.6995 38.0558 18.6559C38.0389 18.6123 38.014 18.5727 37.9825 18.5392C37.951 18.5057 37.9136 18.4791 37.8723 18.4608C37.831 18.4426 37.7867 18.433 37.7418 18.4327H32.8375C32.7494 18.434 32.665 18.47 32.6012 18.5337H32.599L32.5968 18.5383L32.5925 18.5452C32.5323 18.6116 32.498 18.6992 32.4962 18.7908V26.7941C32.4962 26.8882 32.5334 26.9777 32.5925 27.0397L32.5968 27.0466L32.6012 27.0512C32.6654 27.114 32.7497 27.1493 32.8375 27.1499H37.7418C37.93 27.1499 38.0809 26.9892 38.0809 26.7918V25.5061C38.0812 25.4591 38.0726 25.4125 38.0558 25.3689C38.0389 25.3253 38.014 25.2857 37.9825 25.2522C37.951 25.2187 37.9136 25.1921 37.8723 25.1738C37.831 25.1555 37.7867 25.146 37.7418 25.1457H34.4037V23.7934H37.7396C37.9278 23.7934 38.0787 23.6327 38.0787 23.4353V22.1496C38.079 22.1026 38.0705 22.056 38.0536 22.0124C38.0367 21.9688 38.0118 21.9292 37.9803 21.8957C37.9488 21.8622 37.9114 21.8356 37.8701 21.8173C37.8288 21.7991 37.7845 21.7895 37.7396 21.7892H34.4037V20.437H37.7396C37.9278 20.437 38.0787 20.2762 38.0787 20.0788H38.0809Z" fill="#00C300"/>
</svg>
